# xmcd
#
# Track frame offsets:
#	150
#	14402
#	28670
#	42575
#	55469
#	67912
#	80986
#	97313
#	108970
#	121631
#	134274
#	147261
#	160615
#	173229
#	184701
#	197138
#
# Disc length: 2763 seconds
#
# Revision: 0
# Processed by: cddbd v1.5PL3 Copyright (c) Steve Scherf et al.
# Submitted via: EasyCDDAExtractor 5.0.0.0
#
DISCID=e20ac910
DTITLE=Merle Haggard - Country Legends
DYEAR=1900
DGENRE=Country
TTITLE0=I'm A Lonesome Fugitive (The Fugitive)
TTITLE1=Branded Man
TTITLE2=I Threw Away The Rose
TTITLE3=Sing Me Back Home
TTITLE4=If We Make It Through December
TTITLE5=Kentucky Gambler
TTITLE6=Ramblin' Fever
TTITLE7=From Graceland To The Promised Land
TTITLE8=I'm Always On A Mountain When I Fall
TTITLE9=It's Been A Great Afternoon
TTITLE10=Misery And Gin
TTITLE11=Holding Things Together
TTITLE12=Silver Wings
TTITLE13=You Don't Have Far To Go
TTITLE14=Just Between The Two Of Us
TTITLE15=You Don't Even Try
EXTD=
EXTT0=
EXTT1=
EXTT2=
EXTT3=
EXTT4=
EXTT5=
EXTT6=
EXTT7=
EXTT8=
EXTT9=
EXTT10=
EXTT11=
EXTT12=
EXTT13=
EXTT14=
EXTT15=
PLAYORDER=
